<mxfile host="app.diagrams.net" agent="Mozilla/5.0 (Macintosh; Intel Mac OS X 10_15_7) AppleWebKit/537.36 (KHTML, like Gecko) Chrome/134.0.0.0 Safari/537.36" version="26.1.2">
  <diagram name="第 1 页" id="TimXMGxZqtjXBr33XhLs">
    <mxGraphModel dx="954" dy="605" grid="1" gridSize="10" guides="1" tooltips="1" connect="1" arrows="1" fold="1" page="1" pageScale="1" pageWidth="583" pageHeight="827" math="0" shadow="0">
      <root>
        <mxCell id="0" />
        <mxCell id="1" parent="0" />
        <mxCell id="rbJfS5Ykf2xpc7WKGf3x-4" style="edgeStyle=orthogonalEdgeStyle;rounded=0;orthogonalLoop=1;jettySize=auto;html=1;exitX=1;exitY=0.3333333333333333;exitDx=0;exitDy=0;exitPerimeter=0;" edge="1" parent="1" source="rbJfS5Ykf2xpc7WKGf3x-2">
          <mxGeometry relative="1" as="geometry">
            <mxPoint x="340" y="340" as="targetPoint" />
          </mxGeometry>
        </mxCell>
        <mxCell id="rbJfS5Ykf2xpc7WKGf3x-6" value="询问各种问题" style="edgeLabel;html=1;align=center;verticalAlign=middle;resizable=0;points=[];" vertex="1" connectable="0" parent="rbJfS5Ykf2xpc7WKGf3x-4">
          <mxGeometry x="0.0872" relative="1" as="geometry">
            <mxPoint as="offset" />
          </mxGeometry>
        </mxCell>
        <mxCell id="rbJfS5Ykf2xpc7WKGf3x-2" value="用户" style="shape=umlActor;verticalLabelPosition=bottom;verticalAlign=top;html=1;outlineConnect=0;" vertex="1" parent="1">
          <mxGeometry x="140" y="320" width="50" height="70" as="geometry" />
        </mxCell>
        <mxCell id="rbJfS5Ykf2xpc7WKGf3x-14" style="edgeStyle=orthogonalEdgeStyle;rounded=0;orthogonalLoop=1;jettySize=auto;html=1;" edge="1" parent="1" source="rbJfS5Ykf2xpc7WKGf3x-5">
          <mxGeometry relative="1" as="geometry">
            <mxPoint x="580" y="230" as="targetPoint" />
          </mxGeometry>
        </mxCell>
        <mxCell id="rbJfS5Ykf2xpc7WKGf3x-5" value="XX助手" style="rounded=0;whiteSpace=wrap;html=1;" vertex="1" parent="1">
          <mxGeometry x="350" y="200" width="120" height="60" as="geometry" />
        </mxCell>
        <mxCell id="rbJfS5Ykf2xpc7WKGf3x-16" style="edgeStyle=orthogonalEdgeStyle;rounded=0;orthogonalLoop=1;jettySize=auto;html=1;" edge="1" parent="1" source="rbJfS5Ykf2xpc7WKGf3x-8">
          <mxGeometry relative="1" as="geometry">
            <mxPoint x="580" y="330" as="targetPoint" />
          </mxGeometry>
        </mxCell>
        <mxCell id="rbJfS5Ykf2xpc7WKGf3x-8" value="差旅助手" style="rounded=0;whiteSpace=wrap;html=1;" vertex="1" parent="1">
          <mxGeometry x="350" y="300" width="120" height="60" as="geometry" />
        </mxCell>
        <mxCell id="rbJfS5Ykf2xpc7WKGf3x-12" value="AI公共服务(python)" style="whiteSpace=wrap;html=1;aspect=fixed;" vertex="1" parent="1">
          <mxGeometry x="590" y="190" width="210" height="210" as="geometry" />
        </mxCell>
      </root>
    </mxGraphModel>
  </diagram>
</mxfile>
